<?xml version="1.0" encoding="utf-8"?>
<!-- Generator: Adobe Illustrator 21.1.0, SVG Export Plug-In . SVG Version: 6.00 Build 0)  -->
<svg version="1.1" id="Calque_1" xmlns="http://www.w3.org/2000/svg" xmlns:xlink="http://www.w3.org/1999/xlink" x="0px" y="0px"
	 viewBox="0 0 432 432" style="enable-background:new 0 0 432 432;" xml:space="preserve">
<style type="text/css">
	.st0{fill:#96977B;}
	.st1{fill:#C3A98C;}
	.st2{fill:#787068;}
	.st3{fill:#8D5F52;}
	.st4{fill:#7C8185;}
	.st5{fill:#D1AA84;}
	.st6{fill:#C39484;}
	.st7{fill:#85503E;}
	.st8{fill:#727D6E;}
	.st9{fill:#847460;}
	.st10{fill:#7C7C74;}
	.st11{fill:#676767;}
	.st12{fill:#B09883;}
	.st13{fill:#6B6259;}
	.st14{fill:#A47767;}
	.st15{fill:#403D35;}
	.st16{fill:#1B1B1B;}
	.st17{fill:#976757;}
	.st18{fill:#020203;}
	.st19{fill:#343434;}
	.st20{fill:#C1944E;}
	.st21{fill:#C37D7F;}
	.st22{fill:#E3B4B4;}
	.st23{fill:#CDCCCC;}
	.st24{fill:#E5C978;}
	.st25{fill:#B4B4B4;}
	.st26{fill:#C92A34;}
	.st27{fill:#27295B;}
	.st28{fill:#C1292E;}
	.st29{fill:#D25E67;}
	.st30{fill:#A87A8F;}
	.st31{fill:#A0B478;}
	.st32{fill:#CE727D;}
	.st33{fill:#909F82;}
	.st34{fill:#B59677;}
	.st35{fill:#727F92;}
	.st36{fill:#9F6E5E;}
	.st37{fill:#925452;}
	.st38{fill:#55988F;}
	.st39{fill:#14192B;}
	.st40{fill:#7E90A8;}
	.st41{fill:#E9A35E;}
	.st42{fill:#305478;}
	.st43{fill:#CDA27B;}
	.st44{fill:#82A3A9;}
	.st45{fill:#EAB67D;}
	.st46{fill:#894850;}
	.st47{fill:#9A9999;}
	.st48{fill:#D8A861;}
	.st49{fill:#47505C;}
	.st50{fill:#836D6E;}
	.st51{fill:#FAB84C;}
	.st52{fill:#DAA4A5;}
	.st53{fill:#F1A196;}
	.st54{fill:#DAB797;}
	.st55{fill:#B3A4C4;}
	.st56{fill:#C78B8A;}
	.st57{fill:#E5B0B9;}
	.st58{fill:#90A37C;}
	.st59{fill:#B32B32;}
	.st60{fill:#252651;}
	.st61{fill:#BB3129;}
	.st62{fill:#5E6273;}
	.st63{fill:#BF778A;}
	.st64{fill:#576555;}
	.st65{fill:#7E8D66;}
	.st66{fill:#B34B59;}
	.st67{fill:#A59393;}
	.st68{fill:#ECB4B1;}
	.st69{fill:#D59F60;}
	.st70{fill:#F9B03D;}
	.st71{fill:#9A454B;}
	.st72{fill:#E5A48E;}
	.st73{fill:#BF9367;}
	.st74{fill:#6C8A6B;}
	.st75{fill:#121F32;}
	.st76{fill:#B5D9D6;}
	.st77{fill:#E1B476;}
	.st78{fill:#69A19D;}
	.st79{fill:#9D6A59;}
	.st80{fill:#6B7A86;}
	.st81{fill:#899D67;}
	.st82{fill:#AB4A52;}
	.st83{fill:#B0D0D6;}
	.st84{fill:#7686AD;}
	.st85{fill:#304670;}
	.st86{fill:#638389;}
	.st87{fill:#CBA299;}
	.st88{fill:#DE9977;}
	.st89{fill:#96AB55;}
	.st90{fill:#4C5C82;}
	.st91{fill:#341927;}
	.st92{fill:#192134;}
	.st93{fill:#AF6B64;}
	.st94{fill:#62342F;}
	.st95{fill:#9BB09B;}
	.st96{fill:#A4707F;}
	.st97{fill:#746458;}
	.st98{fill:#4A5667;}
	.st99{fill:#A79B92;}
	.st100{fill:#B08475;}
	.st101{fill:#B29D97;}
	.st102{fill:#77667F;}
	.st103{fill:#CC8F7A;}
	.st104{fill:#D39A46;}
	.st105{fill:#A37F72;}
</style>
<g>
	<path class="st16" d="M124.4,364.8c-6.8,0-14.5,0-22.2,0c-4.2,0-8.3,0.2-12.5,0.3c-1.7,0-3.4,0-5.1-0.2c-2-0.1-2.7-1-2.7-3
		c0-2.2,0.5-4.4,1.1-6.5c2.6-9.6,8.2-17.1,16.8-22.2c4.3-2.5,8.9-4,13.8-5c5-1,10.1-1.6,15.2-1.8c7.9-0.2,15.8-0.3,23.7-0.5
		c3.2-0.1,6.4-0.2,9.6-1.1c1.3-0.3,2.5-0.8,3.7-1.4c0.6-0.3,1.1-0.7,1.6-1.2c1.3-1.2,1.4-2.4,0.4-3.7c-0.8-1-1.7-2-2.8-2.7
		c-1.6-1.1-3.4-1.9-5.1-2.8c-1.6-0.8-3.2-1.3-4.8-2.1c-1.6-0.7-3.2-1.6-4.4-2.9c-1.1-1.2-1.7-2.6-1.5-4.3c0.1-1.1,0.6-2.1,1.2-2.9
		c1-1.3,2.4-2.3,3.9-3.1c2.4-1.3,5-2,7.7-2.4c4.6-0.8,9.3-0.8,13.9-0.6c3.4,0.2,6.7,0.4,10.1,0.5c3.8,0.2,7.7,0.4,11.5,0.5
		c4,0.1,7.9,0,11.9,0c4-0.1,8-0.7,11.9-1.6c5.4-1.3,10.1-4.1,14.2-7.8c2.6-2.3,5.1-4.8,7.7-7.2c0.4-0.4,0.8-0.8,1.3-1.1
		c0.9-0.7,1.7-0.5,2.4,0.4c0.7,1.1,0.9,2.3,0.8,3.6c-0.2,3.5-1.6,6.4-3.8,9c-2.3,2.9-5.1,5.3-8.2,7.2c-3.3,2-6.5,3.9-10.1,5.3
		c-5.9,2.3-12,3.8-18.3,4.3c-3.4,0.3-6.9,0.3-10.3,0.5c-1.2,0.1-2.4,0.1-3.7,0.2c-0.9,0.1-1.8,0.3-2.6,0.8c-1.2,0.8-1.4,1.9-0.5,3
		c0.8,1,1.9,1.7,3.1,2.3c1.7,0.8,3.5,1.6,5.2,2.5c2.3,1.2,4.4,2.6,6,4.7c0.9,1.1,1.7,2.4,2.2,3.7c1.2,2.7,1,5.3-0.4,7.9
		c-1,1.9-2.5,3.5-4.1,4.9c-2.1,1.8-4.4,3.4-6.9,4.6c-3.1,1.5-6.3,2.8-9.5,4.2c-2.1,0.9-4.1,1.8-6.1,2.8c-5,2.5-8.4,6.4-10.5,11.5
		c-0.3,0.6-0.5,1.3-0.8,1.9c-0.8,1.6-2.1,2.4-3.9,2.4c-2.6-0.1-5.2-0.2-7.9-0.3c-5.7-0.2-11.5-0.3-17.2-0.4
		C134.5,364.9,129.9,364.9,124.4,364.8z M141.2,347.2c0-1.1-0.9-2.1-2.1-2c-0.6,0-1.2,0.2-1.7,0.5c-4.5,2.3-8.6,5.2-12.2,8.8
		c-0.3,0.3-0.5,0.5-0.7,0.8c-0.6,1-0.4,2.2,0.5,2.9c0.9,0.7,2,0.6,2.8-0.3c2.6-2.9,5.7-5,8.9-7c0.9-0.6,1.8-1,2.7-1.4
		C140.5,348.8,141.1,348.2,141.2,347.2z M161.7,338.3c-0.1,0-0.3,0-0.5,0.1c-4.1,0.7-8,1.8-11.8,3.4c-0.2,0.1-0.5,0.2-0.7,0.4
		c-0.6,0.4-0.8,1.1-0.6,1.7c0.2,0.7,0.8,1.1,1.6,1c0.4-0.1,0.9-0.2,1.3-0.4c2.5-1,5.1-1.9,7.7-2.5c1.2-0.3,2.3-0.4,3.5-0.7
		c0.8-0.2,1.3-0.9,1.2-1.6C163.3,338.8,162.6,338.3,161.7,338.3z M169.6,340.8c0.1,0,0.3,0,0.4,0c2.6-0.5,5.3-0.9,7.9-1.4
		c1.2-0.2,2.3-0.6,3.5-1.1c0.9-0.4,1.3-1.2,1-2c-0.3-0.8-1.2-1.2-2.1-0.8c-2,0.8-4,1.2-6.1,1.5c-1.7,0.3-3.3,0.5-5,0.9
		c-0.8,0.2-1.3,0.9-1.2,1.6C168,340.2,168.7,340.8,169.6,340.8z M168.9,311.3c0.1,0.2,0.2,0.6,0.4,0.9c0.4,0.5,0.8,0.9,1.4,1.3
		c0.9,0.6,1.9,1.2,2.8,1.7c2.4,1.3,4.6,2.7,6.6,4.6c0.2,0.2,0.5,0.4,0.8,0.6c0.5,0.3,1.1,0.1,1.5-0.3c0.4-0.5,0.4-1,0.1-1.4
		c-0.2-0.3-0.5-0.6-0.8-0.8c-1.9-1.7-4-3.1-6.2-4.4c-1.6-0.9-3.4-1.6-4.6-3.2c-0.3-0.4-0.8-0.4-1.3-0.2
		C169.1,310.1,168.9,310.6,168.9,311.3z M190.1,329.4c0-0.4,0-0.5,0-0.7c-0.2-2.7-1.6-4.7-3.4-6.5c-0.1-0.1-0.2-0.2-0.4-0.2
		c-0.6-0.3-1.3-0.1-1.6,0.3c-0.3,0.4-0.3,1.1,0.1,1.6c0.1,0.1,0.3,0.3,0.4,0.4c0.6,0.8,1.2,1.6,1.7,2.4c1,1.7,0.8,3.5-0.2,5.1
		c-0.3,0.5-0.7,0.9-0.9,1.4c-0.4,0.7-0.3,1.4,0.2,1.8c0.5,0.4,1.3,0.3,1.8-0.3C189.1,333.1,190.1,331.3,190.1,329.4z M190.4,303.9
		C190.4,303.9,190.4,303.9,190.4,303.9c1.1,0,2.3,0,3.4,0c0.8,0,1.7-0.1,2.5-0.2c0.8-0.1,1.3-0.7,1.2-1.3c-0.1-0.7-0.6-1-1.5-1
		c-3.6,0-7.2,0-10.7,0c-0.3,0-0.5,0-0.8,0c-0.6,0.1-1.1,0.5-1.1,1.1c0,0.6,0.4,1.1,1.1,1.2c0.2,0,0.4,0,0.6,0
		C186.9,303.8,188.6,303.8,190.4,303.9z M177.4,301.8C177.4,301.8,177.4,301.7,177.4,301.8c-1.7,0.1-3.4,0.3-5.2,0.6
		c-1.6,0.3-2.9,1.2-4,2.4c-0.2,0.2-0.4,0.5-0.5,0.7c-0.2,0.5-0.1,0.9,0.3,1.2c0.4,0.3,0.8,0.4,1.2,0.2c0.3-0.2,0.5-0.4,0.8-0.6
		c0.9-0.9,1.9-1.5,3.2-1.7c1.5-0.2,3-0.3,4.5-0.4c0.9-0.1,1.4-0.6,1.4-1.3c-0.1-0.6-0.6-1-1.5-1.1
		C177.6,301.8,177.5,301.8,177.4,301.8z M205.1,303.5c0.6-0.1,1.2-0.1,1.9-0.3c2-0.3,3.9-0.7,5.9-1.1c0.4-0.1,0.8-0.2,1.1-0.5
		c0.5-0.3,0.6-0.8,0.4-1.3c-0.2-0.5-0.5-0.7-1-0.7c-0.3,0-0.5,0.1-0.8,0.1c-1.8,0.3-3.6,0.7-5.4,1c-0.9,0.2-1.9,0.2-2.8,0.4
		c-0.7,0.1-1.1,0.7-1,1.3c0.1,0.6,0.5,0.9,1.2,1C204.7,303.5,204.8,303.5,205.1,303.5z M221.4,299.6c0.1,0,0.2,0,0.3-0.1
		c2.5-0.5,4.8-1.3,7-2.5c0.3-0.2,0.6-0.4,0.8-0.6c0.4-0.4,0.4-0.9,0.1-1.3c-0.3-0.5-0.7-0.6-1.2-0.5c-0.2,0-0.4,0.2-0.6,0.3
		c-1.8,1-3.8,1.8-5.9,2.2c-0.4,0.1-0.7,0.2-1.1,0.3c-0.6,0.3-0.9,0.7-0.8,1.3C220.3,299.3,220.7,299.6,221.4,299.6z M235.3,293.3
		c0.5-0.2,0.9-0.4,1.3-0.6c2-1.5,3.7-3.3,5.1-5.3c0.2-0.3,0.3-0.6,0.4-0.9c0.1-0.5-0.1-0.9-0.5-1.1c-0.4-0.3-0.9-0.2-1.2,0.1
		c-0.2,0.1-0.3,0.3-0.4,0.5c-1.4,2-3,3.7-4.9,5.1c-0.2,0.1-0.3,0.3-0.5,0.5c-0.3,0.4-0.4,0.8-0.1,1.1
		C234.6,292.8,234.9,293,235.3,293.3z"/>
	<g>
		<path class="st16" d="M203.9,146.9c-1.7,0.7-3.2,1.3-4.8,1.9c-0.1,1.1-0.2,2.2-0.3,3.4c-0.6,5.5-1.7,10.9-3.6,16.1
			c-1.3,3.5-2.9,6.8-5.4,9.6c-2.2,2.4-4.8,4.2-8,4.8c-4,0.8-7.8,0.1-11.3-2.1c-5.1-3.3-8.2-7.9-9-13.9c-0.6-4.6-0.1-9.1,1.3-13.6
			c1.2-3.6,3.4-6.3,6.9-7.8c0.1,0,0.2-0.1,0.3-0.2c-0.2-0.3-0.5-0.5-0.7-0.7c-4.8-5.1-6.6-11.2-5.6-18.1c1.1-7.5,7.7-12.5,15.2-11.9
			c2.9,0.2,5.4,1.2,7.6,3c1.5,1.3,3,2.7,4.3,4.3c4.2,5.3,7,11.2,7.9,17.9c0.2,1.3,0.3,2.6,0.4,4c0.3-0.1,0.5-0.1,0.7-0.2
			c1.7-0.6,3.5-1.3,5.2-1.9c0.5-0.2,0.9-0.5,1.1-1c1.4-2.7,3.4-5,5.7-7c3.2-2.8,6.9-4,11.1-3.9c2.9,0.1,5.5,0.9,8,2.4
			c2.3,1.4,4.5,2.9,6.6,4.8c0.3-0.5,0.5-0.9,0.8-1.4c1.7-2.8,4.1-4.3,7.4-4.2c2.8,0,4.6,1.4,5.1,4.2c0.3,2,0.5,4,0.4,6
			c-0.1,6.2-0.4,12.4-0.4,18.6c0,4.8,0.6,9.6,1.9,14.2c0.4,1.2,1,2.4,1.5,3.6c0.1,0.3,0.4,0.6,0.7,1c0.2-0.4,0.4-0.6,0.6-0.9
			c2.5-5,4.5-10.1,6.4-15.3c0.1-0.3,0.1-0.7,0-1.1c-1.2-5.7-1.4-11.4-0.5-17.1c0.6-4.2,1.9-8.1,4.4-11.6c2.6-3.6,6-6.1,10.4-7
			c2.5-0.5,4.9-0.2,7.3,0.4c4.2,1.2,7.8,3.4,10.9,6.4c0.3,0.3,0.7,0.7,1.2,1.1c0.2-1.1,0.4-2,0.6-3c1.1-5.3,2.6-10.5,4.8-15.5
			c2-4.5,4.7-8.6,8.2-12.2c2.5-2.7,5.5-4.4,9.2-5c5.2-0.8,9.6,0.6,12.9,5c2.8,3.9,3.4,8.1,2.2,12.6c-1.2,4.8-3.6,9.1-6.6,13
			c-4.6,6-10.3,10.8-17.1,14.1c-0.1,0.1-0.2,0.2-0.4,0.3c0,0.6-0.1,1.2-0.1,1.7c-0.1,5.8,0,11.6,0.8,17.4c0.5,3.7,1.3,7.4,2.9,10.9
			c0.7,1.5,1.7,2.9,2.6,4.3c0.6,0.9,1.5,1.6,2.5,2.1c0.7,0.3,1.3,0.3,1.8-0.3c0.5-0.6,1.1-1.3,1.5-2c2-3.4,3.4-7.1,4.4-11
			c0.7-2.8,1.4-5.7,2.5-8.4c0.6-1.5,1.9-2.3,3.5-2.2c1,0.1,1.7,0.6,1.8,1.6c0.1,0.8,0.1,1.7,0.1,2.5c-0.5,6.3-2.1,12.4-5.2,18
			c-0.8,1.5-1.7,2.9-2.8,4.1c-4.3,4.9-11,5.9-16.6,2.6c-2.2-1.3-3.9-3-5.4-5c-2.1-2.8-3.7-5.9-5-9.2c-0.1-0.4-0.3-0.8-0.5-1.3
			c-0.2,0.4-0.3,0.6-0.4,0.8c-0.8,1.9-1.4,3.9-2.3,5.8c-0.9,2-2.2,3.9-3.8,5.4c-4.1,3.9-9.9,4.8-15,2.3c-2.9-1.4-5.2-3.4-7.2-5.8
			c-1.5-1.7-2.8-3.6-3.9-5.7c-0.2-0.3-0.3-0.6-0.5-1c-0.1,0.4-0.2,0.7-0.3,0.9c-1,2.8-2,5.6-3.1,8.4c-0.8,2-2.1,3.7-3.9,4.9
			c-3.3,2.3-6.7,2.4-10.2,0.5c-1.9-1-3.4-2.5-4.7-4.2c-2.4-2.9-4-6.2-5.1-9.8c-0.2-0.5-0.3-1-0.6-1.7c-0.3,0.5-0.4,0.9-0.6,1.3
			c-0.9,2-1.9,3.9-3.2,5.5c-2.1,2.5-4.7,4.1-7.9,4.4c-2.9,0.3-5.6-0.4-8.1-1.8c-2.3-1.3-4.3-3.1-6-5.2c-5.4-6.8-8.1-14.5-7.8-23.2
			c0-0.9,0.2-1.8,0.3-2.7C203.9,147.7,203.9,147.4,203.9,146.9z M286.1,176.5c0.5-0.5,1-1,1.4-1.7c0.8-1.3,1.6-2.6,2.1-4
			c1.8-4.6,3.5-9.3,5.2-13.9c0.1-0.4,0.2-0.8,0.1-1.2c-0.6-4.9-0.6-9.7-0.3-14.6c0-0.4,0-0.8-0.3-1.1c-2.6-3.2-5.6-6-9.4-7.8
			c-1.7-0.8-3.6-1.4-5.5-1.4c-1.1,0-2,0.4-2.8,1.1c-1,0.9-1.6,2.1-2,3.4c-0.6,1.9-0.9,3.9-0.9,5.9c-0.1,3.6,0.2,7.1,0.7,10.6
			c0.7,4.8,1.8,9.4,3.6,13.9c1.3,3.3,3.1,6.4,5.6,9C284.3,175.5,285,176.2,286.1,176.5z M217.5,148.6c0,4.7,0.3,8.5,1.4,12.3
			c0.9,3.2,1.9,6.4,3.6,9.3c0.9,1.5,1.9,2.8,3.3,3.9c1,0.7,1.2,0.7,1.9-0.3c0.9-1.3,1.8-2.6,2.4-4.1c1.7-3.8,3.3-7.7,4.9-11.5
			c0.2-0.4,0.2-0.9,0.2-1.4c-0.1-4.5,0-8.9,0.7-13.4c0.1-0.6-0.1-1-0.5-1.5c-1.9-2.1-4.1-3.8-6.7-5.1c-1.2-0.6-2.5-1.1-3.8-1.4
			c-1.7-0.5-3,0.1-4,1.6c-1.2,1.8-2.2,3.8-2.5,6C218,145.1,217.7,147.3,217.5,148.6z M192.6,145.5c0-0.5,0-0.8,0-1.2
			c-0.1-1.5-0.2-3.1-0.4-4.6c-0.9-6.4-3.4-12.1-7.5-17.1c-0.8-1-1.8-1.9-2.8-2.6c-3.2-2.4-6.4-0.9-8,1.2c-1.7,2.3-2.3,4.8-2.3,7.6
			c0.1,2.5,0.7,5,1.7,7.3c2,4.5,5.2,7.7,9.9,9.1c2.5,0.7,5.1,0.9,7.7,0.6C191.5,145.7,192,145.6,192.6,145.5z M176.5,149.1
			c-0.1,0.3-0.2,0.5-0.3,0.7c-0.4,1.8-0.9,3.6-1.3,5.4c-0.9,4.3-0.7,8.6,0.6,12.8c0.8,2.4,2,4.6,3.9,6.3c0.5,0.4,1,0.7,1.6,1
			c0.5,0.3,1,0.3,1.4-0.1c0.7-0.6,1.4-1.2,2.1-1.8c1.6-1.7,2.9-3.7,3.8-5.9c2.2-5.2,3.6-10.6,4.1-16.2c0-0.2,0-0.5-0.1-0.8
			C187,151.4,181.7,151.3,176.5,149.1z M309.6,137.3c0.4-0.2,0.5-0.2,0.6-0.3c8.4-5.4,13.8-12.9,16.5-22.4c0.5-1.9,0.7-3.8,0.3-5.8
			c-0.4-1.7-1.1-3.3-2.3-4.6c-1-1-1.9-1.3-3.2-0.6c-0.9,0.5-1.7,1.1-2.3,1.8c-0.7,0.7-1.2,1.6-1.8,2.4c-1.4,2.2-2.4,4.6-3.3,7
			c-2.2,6.2-3.4,12.7-4.2,19.2C309.8,135,309.7,136.1,309.6,137.3z"/>
		<path class="st16" d="M119.2,142.4c0.1-0.4,0.3-0.9,0.4-1.3c1.9-6.6,4.5-12.9,8-18.8c1.9-3.2,4.1-6.1,6.9-8.7
			c2.9-2.6,6.1-4.5,9.9-5.3c6.6-1.4,12.6,2,14.7,8.5c1.6,4.9,1.2,9.8-1,14.5c-1.5,3.2-3.5,6-5.9,8.6c-5.6,6.1-11.8,11.4-19.1,15.4
			c-2.3,1.3-4.7,2.2-7,3.3c-0.4,0.2-0.8,0.4-1.2,0.6c0,0.1,0,0.2,0,0.3c3.9,4.5,7.8,9.1,11.8,13.5c1.9,2.2,4.2,4,6.7,5.6
			c1.3,0.8,2.6,1.5,4.1,1.8c0.9,0.2,1.8,0,2.5-0.6c0.7-0.6,1.5-1.3,2.1-1.9c1.1-1.1,2.1-2.2,3.1-3.3c0.6-0.7,1.4-1.2,2.3-1.3
			c0.5-0.1,1,0,1.5,0.1c0.9,0.3,1.2,1.1,0.8,2c-0.1,0.2-0.2,0.5-0.4,0.7c-1.5,1.8-3,3.6-4.6,5.3c-2.9,3-6.5,3.9-10.5,3.4
			c-4.4-0.5-8.2-2.5-11.8-4.9c-3.2-2.2-5.9-4.9-8.5-7.8c-0.3-0.3-0.5-0.6-0.9-1c0,0.4-0.1,0.6-0.1,0.8c0,3,0,6.1,0,9.1
			c0,0.5-0.1,1-0.1,1.4c-0.1,2-1.2,3.2-2.9,3.8c-3.1,1.1-5.9,0.6-8.3-1.7c-2.2-2.1-3.8-4.7-4.7-7.7c-1.1-3.8-1.9-7.7-2.5-11.6
			c-1.1-7.7-1.8-15.4-2-23.2c-0.1-4.1-0.2-8.3-0.1-12.4c0.2-5.5,0.7-11,2.4-16.3c0.4-1.2,0.8-2.3,1.3-3.4c1.9-3.9,6.8-4.3,9.7-2.5
			c1.3,0.8,2.1,2,2.3,3.5c0.3,2.1,0.6,4.2,0.6,6.3c0.1,4.1-0.1,8.2-0.1,12.3c0,4.3,0.1,8.6,0.1,12.9
			C119,142.4,119.1,142.4,119.2,142.4z M124.1,153.6c0.3-0.1,0.5-0.2,0.6-0.3c1.9-1.1,3.9-2.1,5.8-3.2c6.2-3.8,11.3-8.7,16-14.2
			c2-2.4,3.8-5,5.1-7.9c1.1-2.4,1.7-4.8,1.4-7.4c-0.2-2.4-0.9-4.6-2.6-6.4c-1.2-1.3-2.7-1.8-4.4-1.2c-1.1,0.4-2.2,0.8-3.1,1.4
			c-1.3,0.8-2.5,1.8-3.7,2.9c-2.8,2.6-4.9,5.9-6.7,9.3c-3.8,7.1-6.3,14.6-7.8,22.5C124.5,150.5,124.3,152,124.1,153.6z"/>
	</g>
	<path class="st81" d="M267.7,340.9c3.2-5.1,7.6-9,12.1-12.7c3.8-3.2,7.9-6,12.4-8.1c3.4-1.5,6.9-2.6,10.6-3.2
		c5.1-0.8,10.2-0.7,15.3,0.8c4.8,1.4,9,4,12.7,7.2c5.5,4.7,10,10.2,14,16.1c3.6,5.4,6.7,11.2,10,16.9c0.3,0.5,0.5,1.1,0.7,1.6
		c0.2,0.6,0.2,1.2,0.2,1.7c-0.1,1.8-1.8,2.9-3.5,2.4c-0.7-0.2-1.4-0.6-1.9-1.1c-0.8-0.7-1.4-1.6-2-2.5c-2.7-3.9-5.3-7.9-8-11.9
		c-3.5-5.1-7.1-10-11.3-14.5c-3.2-3.4-6.7-6.4-10.9-8.5c-3.7-1.8-7.5-2.8-11.6-2.9c-4.4-0.1-8.5,1.1-12.5,3
		c-2.9,1.5-5.6,3.3-8.2,5.3c-4.4,3.4-8.6,7-12.7,10.7c-0.6,0.5-1.1,1.1-1.7,1.7c0.3,0.2,0.5,0.4,0.7,0.5c4.7,2.9,9,6.3,13.3,9.8
		c3.4,2.8,6.8,5.5,10.2,8.2c0.7,0.6,1.4,1.2,2,1.9c0.7,0.8,0.8,1.8,0.3,2.6c-0.5,0.8-1.4,1.2-2.4,1c-1.1-0.3-2.3-0.6-3.3-1.2
		c-3.2-1.9-6.4-3.8-9.6-5.8c-3.2-2-6.2-4.2-9.5-6.2c-7-4.2-14.4-7.3-22.2-9.5c-7.9-2.2-15.8-2-23.7,0.2c-8.5,2.3-16.4,6.1-23.6,11.1
		c-2.6,1.8-5.3,3.5-8,5.2c-1.3,0.8-2.7,1.4-4.2,2.1c-0.5,0.2-1.1,0.3-1.6,0.4c-1.2,0-1.9-1-1.5-2.1c0.1-0.4,0.4-0.8,0.6-1.2
		c0.4-0.5,0.8-0.9,1.2-1.3c6.9-6.4,14.2-12.1,22.5-16.6c8-4.2,16.5-6.8,25.5-7.9c5.8-0.7,11.6,0.1,17.2,1.6c4,1.1,7.9,2.6,11.5,4.5
		C267.1,340.6,267.4,340.8,267.7,340.9z"/>
	<path class="st81" d="M114.2,281.1c4.6,0.1,8.6,1.8,12.2,4.8c2.3,1.9,4.2,4.1,5.8,6.5c2.1,3.1,4.2,6.2,6.2,9.3
		c2,3.2,4.2,6.1,6.8,8.9c0.6,0.6,1,1.4,1.4,2.1c0.6,1.5-0.4,2.9-2.1,3c-0.9,0-1.8-0.2-2.5-0.7c-1.1-0.8-2.2-1.6-3.3-2.4
		c-2.7-2.3-5-5-7.2-7.7c-2-2.5-3.9-5-5.9-7.5c-1.4-1.7-3-3.4-4.6-4.9c-2.7-2.6-5.9-3.8-9.7-3.4c-1.5,0.2-3,0.5-4.4,1
		c-3.4,1.2-6.3,3.3-9.1,5.6c-4.1,3.5-7.5,7.7-10.6,12.1c-2.2,3.1-4.2,6.3-6.3,9.5c-0.4,0.6-0.9,1.3-1.4,1.9c-0.3,0.3-0.6,0.6-1,0.7
		c-1.3,0.3-2.1-0.3-2.1-1.7c0-0.7,0.2-1.4,0.4-2.1c0.3-0.9,0.6-1.8,1.1-2.7c4.7-9.5,10.9-17.9,19-24.8c3-2.6,6.3-4.7,10.1-6.2
		C109.2,281.6,111.6,281.2,114.2,281.1z"/>
	<g>
		<g>
			<path class="st88" d="M317.1,253.8c0.2-7.5,2.3-14.5,6.7-20.8c2.5-3.6,5.3-7,8-10.5c2.1-2.7,4.1-5.3,5.6-8.4
				c0.9-1.9,1.6-3.8,1.4-6c-0.3-3.7-1.8-6.9-4.5-9.3c-2-1.8-4.5-2.2-7.1-1.7c-3.5,0.6-6.3,2.5-8.6,5.2c-3.3,3.8-5.4,8.2-6.3,13.1
				c-0.2,1.1-0.7,1.7-1.7,2.1c-1.3,0.4-2.3-0.1-2.8-1.4c-0.8-2.1-0.8-4.3-0.4-6.4c2.2-10.4,8.6-16.8,18.8-19.5
				c3.8-1,7.6-0.9,11.4,0.2c7.1,2,11.4,6.7,13,13.9c1.1,4.9,0.2,9.5-2.1,13.8c-1.8,3.5-4,6.7-6.3,9.9c-2.4,3.4-4.8,6.8-6.8,10.5
				c-2.1,3.9-3.7,8-4.5,12.5c-0.4,2.3-0.5,4.6,0.1,6.9c0.6,2.1-0.1,3.8-1.6,5.2c-2.1,2.1-4.5,3-7.4,2.5c-1.9-0.3-3-1.4-3.6-3.2
				C317.5,259.7,317.1,256.8,317.1,253.8z"/>
			<path class="st88" d="M318.3,277.8c0-1.3,0.3-2.3,0.8-3.2c1.8-3.3,6.1-5.2,9.8-4.4c1.3,0.3,2.4,0.9,3.3,1.9
				c1.7,1.7,2,4.2,0.8,6.4c-1.2,2.1-3,3.5-5.2,4.4c-1.5,0.6-3.1,0.8-4.7,0.5C320.3,282.8,318.3,280.4,318.3,277.8z"/>
		</g>
		<g>
			<path class="st88" d="M209.1,260c-0.8,2.2-1.5,4.1-2.4,6c-1.1,2.5-2.3,5-3.6,7.5c-1,1.8-2.4,3.4-4.1,4.6
				c-3.5,2.5-7.6,2.7-11.2,0.4c-2.9-1.8-5-4.3-6.6-7.2c-2-3.6-3.1-7.5-3.8-11.5c-0.8-5-0.6-10.1-0.1-15.1c0.5-5.2,1.6-10.2,2.8-15.2
				c0.3-1.2,0.6-2.4,0.6-3.6c-1-0.6-2-0.6-3-0.5c-1.8,0.2-3.6,0.6-5.3,1c-2,0.5-4,1-6.1,1.6c0.1,1.3,0.2,2.5,0.3,3.8
				c0.3,3.6,0.1,7.2-0.1,10.7c-0.4,5.3-1.3,10.6-2.6,15.7c-1,3.9-2.1,7.7-3.8,11.3c-1,2.3-2.3,4.4-4,6.2c-2,2.3-4.5,3.8-7.5,4.4
				c-2.1,0.4-4.2,0-6.3-0.5c-4.5-1.1-8.3-3.6-11.6-6.9c-3.1-3.2-5.4-6.9-7.4-10.9c-2.6-5.4-4.3-11.2-5.5-17
				c-1.1-5.3-2-10.7-2.6-16.1c-0.6-5.3-0.9-10.7-0.5-16c0-0.8,0.1-1.5,0.2-2.4c-0.3,0.1-0.6,0.2-0.9,0.3c-4.8,2.2-9.5,4.7-14,7.4
				c-1.5,0.9-2.9,2.1-4.4,3.1c-0.7,0.5-1.5,0.9-2.2,1.1c-0.4,0.1-1,0-1.5-0.1c-0.7-0.2-1.1-0.9-0.8-1.6c0.3-0.8,0.8-1.7,1.3-2.4
				c1.3-1.7,2.9-3,4.6-4.2c6.1-4.5,12.7-8.1,19.8-10.8c8.3-3.3,16.9-5.5,25.7-6.9c9.1-1.4,18.2-1.8,27.4-1.3
				c8.7,0.5,17.3,1.5,25.8,3.1c9.7,1.8,19.4,3.8,29.1,5.7c7.5,1.5,15.1,2.9,22.8,3.6c5.7,0.5,11.5,0.9,17.3,1.1
				c6.4,0.2,12.7-0.5,18.8-2.3c4.2-1.3,7.8-3.5,10.9-6.5c1.4-1.4,2.9-2.8,4.4-4.3c0.8-0.8,1.8-1.5,3-1.5c0.5,0,1.1,0,1.6,0.2
				c1.4,0.4,1.9,1.7,1.1,3c-0.5,0.7-1,1.4-1.5,2c-3.3,4.1-7,7.7-11.7,10.2c-3,1.5-6.3,2.6-9.6,3.4c-4.8,1.2-9.7,1.7-14.6,1.8
				c-7.9,0.1-15.8-0.2-23.7-0.9c-5.7-0.5-11.4-1.4-17-2.5c-8.6-1.7-17.2-3.5-25.9-5.1c-7.5-1.5-15-2.7-22.6-3.6
				c-7.6-0.8-15.2-1.3-22.9-0.9c-8.8,0.4-17.4,1.8-25.9,4.2c-0.2,0-0.3,0.1-0.5,0.2c0,0,0,0.1-0.1,0.1c0.3,1.2,0.7,2.5,0.9,3.7
				c0.3,2.1,0.7,4.3,0.8,6.5c0.4,5.5,0.8,11.1,1.6,16.5c1.3,8.9,3.4,17.6,6.7,26c1,2.5,2.1,4.9,3.3,7.2c0.9,1.9,2.1,3.6,3.7,5
				c0.7,0.6,1.5,1.2,2.3,1.7c1.3,0.8,2.3,0.6,3.2-0.5c0.6-0.8,1.3-1.5,1.8-2.4c1.5-2.3,2.5-4.9,3.4-7.6c1.3-3.8,2-7.8,2.6-11.8
				c0.7-4.7,1.2-9.5,1.1-14.2c0-2.2-0.2-4.4-0.3-6.8c-0.5,0-0.9,0-1.3,0c-2.2,0-4.4-0.1-6.6-0.9c-4.2-1.4-7.3-4.1-8.4-8.5
				c-1-3.9-0.2-7.4,2.6-10.4c2.6-2.7,6.6-3.2,9.9-1.4c1.7,0.9,3,2.3,4.1,3.8c2.4,3.2,3.8,6.9,4.9,10.7c0.1,0.3,0.2,0.7,0.3,1.1
				c0.4-0.1,0.7-0.1,1-0.2c3.5-0.9,7.1-1.9,10.6-2.8c2.1-0.5,4.3-0.7,6.5-0.6c3.7,0.2,8.1,3,9.3,7.3c0.8,2.7,1.1,5.4,0.9,8.1
				c-0.3,4.3-0.8,8.6-1.1,12.9c-0.3,4.3-0.6,8.7-0.1,13.1c0.3,2.5,0.8,5,1.6,7.5c0.5,1.3,1.1,2.6,2.1,3.8c0.3-0.4,0.6-0.7,0.8-1
				c1.3-2.3,2.6-4.6,3.7-7.1c2-4.2,3.8-8.5,5.6-12.8c0.3-0.7,0.4-1.4,0.4-2.1c-0.1-2.9-0.3-5.8-0.3-8.6c0-3,0.4-5.9,1.3-8.7
				c0.3-1,0.8-2.1,1.3-3c1.6-2.7,4.9-4.1,8-3.6c2.3,0.4,3.6,1.7,4,4c0.2,1.8,0.4,3.6,0.4,5.4c0.1,4.4,0,8.7,0.1,13.1
				c0.1,5.1,1,10.1,2.6,15c0.8,2.5,1.8,4.8,3.5,6.9c0.6,0.7,1.2,1.3,1.9,1.8c0.7,0.5,0.9,0.5,1.5-0.2c0.7-1,1.5-2,2.1-3.1
				c1.4-2.7,2.8-5.5,4-8.3c2.2-5.3,4.3-10.7,6.4-16c0.2-0.5,0.2-1,0.2-1.5c0-2.8-0.2-5.5-0.2-8.3c0-2.4,0.4-4.7,1.1-7
				c0.4-1.2,0.9-2.4,1.6-3.5c1.5-2.5,4.5-3.7,7.3-3c1.2,0.3,2.1,0.9,2.8,1.9c0.8,1.2,1.4,2.6,1.6,4.1c0.4,2.8,0.9,5.7,1.1,8.6
				c0.7,7.2,1.4,14.4,2.9,21.5c0,0.2,0.1,0.3,0.3,0.5c0.1-0.3,0.1-0.6,0.2-0.9c0.8-6.4,2.5-12.5,5.3-18.3c1.3-2.7,2.9-5.3,5.1-7.3
				c2.7-2.6,5.9-3.9,9.7-3.6c3.3,0.3,6,1.8,8.2,4.1c1.7,1.7,3,3.7,4,5.8c2,4.2,3.2,8.6,3.7,13.3c0.6,6.5-0.2,12.8-1.9,19
				c0,0.2-0.1,0.4-0.2,0.5c0,0.1,0,0.1,0,0.3c0.2,0.1,0.4,0.2,0.7,0.3c1.9,0.4,3.7,0.8,5.6,1.2c1.7,0.3,3.4-0.1,4.8-1.1
				c1-0.7,2.1-1.2,2.9-2.2c0.6-0.7,1.5-0.9,2.4-0.8c1.2,0.1,1.9,1.3,1.5,2.4c-0.2,0.4-0.4,0.9-0.7,1.2c-2.9,2.9-6.2,5-10.3,5.6
				c-2.5,0.3-4.9,0.1-7.4-0.3c-0.5-0.1-1.1-0.2-1.7-0.3c-0.1,0.3-0.3,0.6-0.4,0.8c-1.1,1.9-2,3.9-3.2,5.7c-2.9,4.2-6.7,7.1-11.7,8.4
				c-2.3,0.6-4.5,0.5-6.9-0.3c0.1,0.4,0.1,0.8,0.2,1.1c1.8,7.4,3.9,14.8,7,21.8c0.9,2,0.5,3.7-0.9,5.2c-1.1,1.3-2.4,2.1-4.1,2.5
				c-1.7,0.4-3.2-0.1-4.5-1.3c-0.7-0.7-1.3-1.4-1.9-2.2c-3.7-4.9-6.8-10.1-9.3-15.7c-3.7-8.2-6.3-16.6-8.4-25.3
				c-1.7-6.9-3.2-13.8-4.4-20.8c0-0.1-0.1-0.3-0.2-0.7c-0.2,0.6-0.4,1-0.5,1.3c-1.3,3.3-2.4,6.7-3.8,9.9c-0.9,2-1.9,4-3.1,5.9
				c-0.8,1.3-1.7,2.4-2.7,3.5c-3.6,3.5-8.6,4.3-13.2,2.2c-2.5-1.2-4.5-2.9-6.2-5.1c-2.3-2.9-4-6.1-5.3-9.5
				C210.1,262.6,209.7,261.5,209.1,260z M269.2,272.7c5.7-4.7,12.1-5.4,19-4.4c0.1-0.5,0.2-0.9,0.2-1.3c0.2-2.1,0.4-4.3,0.5-6.4
				c0.3-5.8-0.1-11.5-1.7-17.1c-0.7-2.5-1.6-4.8-2.9-7c-0.8-1.2-1.7-2.4-2.9-3.1c-1-0.6-1.6-0.6-2.4,0.1c-0.8,0.8-1.7,1.6-2.3,2.5
				c-1.1,1.8-2.1,3.6-2.9,5.6c-3.7,8.9-5,18.2-4.8,27.7C269,270.4,269.1,271.5,269.2,272.7z M286.5,274.6c-2.6-0.6-5-0.8-7.4-0.5
				c-1.3,0.2-2.6,0.5-3.7,1.3c-1.8,1.2-2.8,2.9-2.7,5.1c0.1,2.8,3.7,6.2,7.2,3.9c0.5-0.3,1-0.7,1.4-1.1
				C283.8,280.9,285.2,277.8,286.5,274.6z M159.1,224.3c-0.2-0.8-0.4-1.6-0.6-2.3c-0.8-2.6-1.6-5.1-3.1-7.4c-0.7-1-1.5-2-2.4-2.9
				c-1.2-1.2-1.7-1-2.6,0.3c-0.9,1.4-1.3,2.9-1.2,4.5C149.5,222,155.1,224.8,159.1,224.3z"/>
			<path class="st88" d="M213.4,223.1c-3.3,0-5.3-1.3-6.3-3.7c-0.6-1.5-0.5-3,0.3-4.4c1.8-3.1,6.3-4.7,9.6-3.5
				c0.3,0.1,0.7,0.3,1,0.5c3.1,1.8,3.7,5.5,1.4,8.1C217.7,222.1,215.4,223,213.4,223.1z"/>
		</g>
	</g>
	<g>
		<path class="st16" d="M116.2,77.5c0.1,1.7-0.2,3.5-0.9,5.2c-0.5,1.2-1.3,2.2-2.3,2.9c-0.4,0.3-0.8,0.5-1.2,0.8
			c-0.4,0.3-0.8,0.5-1.3,0.7c-1,0.4-1.9,0.8-2.9,1.1c-1,0.4-2,0.6-3,0.6c-0.4,0-0.7,0-0.8-0.1c-0.1-0.1-0.2-0.4-0.2-0.8
			c-0.1-0.8-0.1-1.9-0.2-3.2c-0.1-1.3-0.2-2.7-0.3-4.2c-0.1-1.5-0.2-3-0.4-4.5c-0.1-1.5-0.2-3-0.3-4.3c-0.1-1.3-0.2-2.5-0.3-3.5
			c-0.1-1-0.1-1.7-0.1-2.1c0-0.2,0-0.4,0-0.5c0-0.1,0-0.2,0.1-0.3c0-0.1,0.1-0.1,0.3-0.2c0.1,0,0.3-0.1,0.5-0.1
			c0.3,0,0.5-0.1,0.8-0.1c0.3,0,0.5,0,0.7-0.1c1.4,0.1,2.8,0.3,4,0.7c1.2,0.4,2.4,1,3.5,1.8c0.5,0.3,0.9,0.7,1.2,1.1
			c0.3,0.4,0.7,0.9,1,1.3c0.7,1.2,1.3,2.4,1.6,3.7C115.9,74.8,116.1,76.1,116.2,77.5z M107.6,81.4c0.7-0.1,1.3-0.2,1.9-0.5
			c0.6-0.3,1-0.7,1.4-1.1c0.4-0.4,0.7-0.9,0.9-1.5c0.2-0.6,0.3-1.1,0.2-1.8c0-0.6-0.2-1.2-0.5-1.7c-0.3-0.5-0.6-1-1.1-1.4
			c-0.4-0.4-0.9-0.7-1.5-0.9c-0.6-0.2-1.1-0.3-1.7-0.3c0.1,1.5,0.1,3,0.2,4.5C107.5,78.3,107.6,79.9,107.6,81.4z"/>
		<path class="st16" d="M126.6,86.9c0.1,0.7,0.1,1.2-0.1,1.4c-0.2,0.2-0.6,0.3-1.3,0.4c-0.9,0-1.7,0.1-2.6,0.1c-0.9,0-1.8,0-2.7,0
			c-0.5,0-0.8-0.1-1-0.3c-0.1-0.2-0.2-0.5-0.3-1c0-0.2,0-0.3-0.1-0.5c0-0.2,0-0.3,0-0.5c0-0.3,0.1-0.5,0.2-0.6
			c0.1-0.1,0.3-0.2,0.6-0.2h0.5c0.1-2.9,0.2-5.8,0.3-8.7c0.1-2.9,0.2-5.8,0.3-8.7c0,0-0.1-0.1-0.2-0.1c-0.3,0-0.5-0.1-0.6-0.1
			c-0.1,0-0.3-0.1-0.3-0.2c-0.1-0.1-0.1-0.2-0.1-0.3c0-0.1,0-0.4,0-0.6v-0.3c0-0.3,0.1-0.6,0.1-0.8s0.1-0.4,0.2-0.5
			c0.1-0.1,0.2-0.2,0.4-0.3c0.2-0.1,0.4-0.1,0.7-0.2c0.7-0.1,1.5-0.2,2.3-0.2c0.8,0,1.5,0.1,2.3,0.3c0.2,0.1,0.5,0.1,0.7,0.2
			c0.4,0.2,0.5,0.4,0.5,0.7c-0.1,0.8-0.2,1.5-0.3,2.2c0,0.1,0,0.1-0.1,0.2c-0.1,0.1-0.2,0.1-0.3,0.1c-0.1,0-0.2,0.1-0.4,0.1
			c-0.1,0-0.3,0-0.5,0c-0.1,2.9-0.1,5.8-0.1,8.6c0,2.8,0.2,5.6,0.5,8.5c0.3,0,0.5,0,0.7,0c0.2,0,0.3,0.1,0.4,0.1
			c0.1,0.1,0.1,0.2,0.2,0.4C126.5,86.3,126.6,86.6,126.6,86.9z"/>
		<path class="st16" d="M143.2,77.5c0.1,1.7-0.2,3.5-0.9,5.2c-0.5,1.2-1.3,2.2-2.3,2.9c-0.4,0.3-0.8,0.5-1.2,0.8
			c-0.4,0.3-0.8,0.5-1.3,0.7c-1,0.4-1.9,0.8-2.9,1.1c-1,0.4-2,0.6-3,0.6c-0.4,0-0.7,0-0.8-0.1c-0.1-0.1-0.2-0.4-0.2-0.8
			c-0.1-0.8-0.1-1.9-0.2-3.2c-0.1-1.3-0.2-2.7-0.3-4.2c-0.1-1.5-0.2-3-0.4-4.5c-0.1-1.5-0.2-3-0.3-4.3c-0.1-1.3-0.2-2.5-0.3-3.5
			c-0.1-1-0.1-1.7-0.1-2.1c0-0.2,0-0.4,0-0.5c0-0.1,0-0.2,0.1-0.3c0-0.1,0.1-0.1,0.3-0.2c0.1,0,0.3-0.1,0.5-0.1
			c0.3,0,0.5-0.1,0.8-0.1c0.3,0,0.5,0,0.7-0.1c1.4,0.1,2.8,0.3,4,0.7c1.2,0.4,2.4,1,3.5,1.8c0.5,0.3,0.9,0.7,1.2,1.1
			c0.3,0.4,0.7,0.9,1,1.3c0.7,1.2,1.3,2.4,1.6,3.7C142.9,74.8,143.1,76.1,143.2,77.5z M134.6,81.4c0.7-0.1,1.3-0.2,1.9-0.5
			c0.6-0.3,1-0.7,1.4-1.1c0.4-0.4,0.7-0.9,0.9-1.5c0.2-0.6,0.3-1.1,0.2-1.8c0-0.6-0.2-1.2-0.5-1.7c-0.3-0.5-0.6-1-1.1-1.4
			c-0.4-0.4-0.9-0.7-1.5-0.9c-0.6-0.2-1.1-0.3-1.7-0.3c0.1,1.5,0.1,3,0.2,4.5C134.5,78.3,134.6,79.9,134.6,81.4z"/>
		<path class="st16" d="M170.2,81.6c0.1,0.7-0.1,1.5-0.4,2.3c-0.3,0.8-0.8,1.5-1.3,2.2c-0.6,0.7-1.3,1.3-2.1,1.7
			c-0.8,0.5-1.7,0.8-2.6,0.9c-1.7,0.1-3.2,0-4.7-0.5c-0.5-0.2-1-0.4-1.6-0.6c-0.5-0.2-1-0.4-1.6-0.7c-0.3-0.1-0.5-0.2-0.5-0.3
			c-0.1-0.1-0.1-0.3,0-0.6c0.2-0.8,0.5-1.5,0.7-2.3c0.2-0.8,0.5-1.5,0.7-2.3c0.1-0.4,0.4-0.5,0.8-0.3c0.1,0,0.2,0.1,0.3,0.2
			c0.1,0.1,0.2,0.1,0.3,0.2c0.6,0.4,1.1,0.7,1.7,0.9c0.6,0.2,1.2,0.5,1.8,0.6c0.4,0.1,0.9,0.2,1.3,0.1c0.4,0,0.8-0.2,1.2-0.5
			c0.6-0.5,1-1,1-1.8c0.1-0.7-0.1-1.4-0.7-2c-0.2-0.2-0.4-0.5-0.7-0.6c-0.3-0.2-0.5-0.4-0.8-0.5c-0.3-0.2-0.7-0.3-1-0.5
			c-0.4-0.1-0.7-0.3-1.1-0.4c-0.6-0.2-1.2-0.5-1.7-0.8c-0.5-0.3-1.1-0.7-1.5-1.1c-1-0.9-1.6-1.8-2-2.9c-0.3-1.1-0.4-2.3-0.1-3.6
			c0.3-1.5,1.2-2.6,2.8-3.1c0.5-0.2,1-0.3,1.4-0.4c0.5-0.1,1-0.1,1.5-0.1c1,0,2,0.1,3,0.4c1,0.2,1.9,0.7,2.8,1.2
			c0.2,0.1,0.3,0.2,0.4,0.3c0.1,0.1,0.2,0.2,0.2,0.2c0,0.1,0,0.2,0,0.3c0,0.1,0,0.3-0.1,0.5c-0.1,0.5-0.2,1-0.3,1.4
			c-0.1,0.5-0.2,1-0.4,1.4c-0.1,0.4-0.2,0.6-0.4,0.6c-0.2,0.1-0.4,0-0.7-0.3c-0.2-0.1-0.4-0.3-0.6-0.4c-0.2-0.1-0.4-0.3-0.6-0.4
			c-0.6-0.4-1.2-0.5-1.9-0.3c-0.8,0.3-1,0.8-0.7,1.6c0.1,0.3,0.4,0.6,0.7,0.8c0.2,0.2,0.5,0.4,0.8,0.6c0.3,0.2,0.5,0.3,0.8,0.5
			l2.2,1.4c1.2,0.8,2.1,1.8,2.7,2.9C169.7,78.9,170.1,80.2,170.2,81.6z"/>
		<path class="st16" d="M190.8,77c0,0.1,0,0.2,0,0.3c0,0.1,0,0.2,0,0.3c0,0.1,0,0.2,0,0.3c0,0.1,0,0.2,0,0.3c0,0.9-0.1,1.8-0.2,2.6
			c-0.1,0.9-0.3,1.7-0.6,2.5c-0.3,0.8-0.7,1.6-1.1,2.3c-0.5,0.7-1.1,1.3-1.8,1.9c-0.8,0.6-1.6,1-2.5,1.2c-0.9,0.2-1.8,0.2-2.7,0
			c-0.8-0.2-1.6-0.4-2.3-0.6c-0.7-0.3-1.4-0.6-2.1-1.1c-2.6-1.7-4.1-4.1-4.7-7.1c-0.3-1.5-0.4-3-0.3-4.5c0.1-1.5,0.4-2.9,0.9-4.4
			c0.2-0.7,0.6-1.4,0.9-2c0.4-0.6,0.8-1.2,1.3-1.7c0.5-0.5,1.1-0.9,1.7-1.3c0.6-0.3,1.3-0.6,2-0.7c0.7-0.2,1.4-0.3,2.1-0.3
			c2-0.1,3.7,0.6,5,2c1.3,1.4,2.3,3,3.1,4.7C190.2,73.2,190.7,75,190.8,77z M184.7,80.4c0-0.2,0.1-0.5,0.2-0.9
			c0.1-0.4,0.1-1,0.1-1.6c0-0.6-0.1-1.3-0.2-2c-0.2-0.7-0.4-1.4-0.9-2.1c-0.1-0.2-0.2-0.4-0.4-0.6c-0.1-0.2-0.3-0.4-0.4-0.5
			c-0.6-0.6-1.2-0.9-1.9-0.8c-0.7,0-1.3,0.4-1.8,1c-0.5,0.5-0.8,1.1-1,1.9c-0.3,1-0.3,2.1-0.2,3c0.2,1,0.5,1.9,1,2.9
			c0.3,0.5,0.6,0.8,1,1.1c0.4,0.3,0.8,0.5,1.3,0.6c0.5,0.1,0.9,0.1,1.3-0.1c0.4-0.1,0.8-0.4,1.1-0.7
			C184.4,81.2,184.6,80.8,184.7,80.4z"/>
		<path class="st16" d="M211.1,87.8c0.1,0.3,0.1,0.5,0,0.6c-0.1,0.1-0.3,0.2-0.6,0.2c-0.6,0-1.3,0.1-1.9,0.1c-0.6,0-1.2,0-1.9,0.1
			c-0.4,0-0.6,0-0.7-0.1c-0.1-0.1-0.2-0.3-0.2-0.7c0-0.3-0.1-0.9-0.1-1.7c0-0.8-0.1-1.6-0.1-2.6c0-1-0.1-1.9-0.1-2.9
			c0-1-0.1-1.9-0.1-2.7c0-0.8-0.1-1.4-0.1-1.9c0-0.5-0.1-0.6-0.1-0.5c-0.2,0.5-0.5,1.2-0.7,1.9c-0.2,0.7-0.4,1.4-0.6,1.9
			c0,0.2-0.1,0.4-0.1,0.5c-0.1,0.4-0.2,0.6-0.3,0.7c-0.1,0.1-0.4,0.2-0.8,0.2c-0.3,0-0.6,0-0.8,0c-0.3,0-0.6,0-0.9,0
			c-0.5,0-0.9-0.2-1.1-0.7c-0.1-0.3-0.3-0.6-0.5-1.1c-0.2-0.5-0.4-0.9-0.6-1.4c-0.2-0.5-0.4-0.9-0.6-1.2c-0.2-0.3-0.3-0.5-0.4-0.6
			c0,0.2,0,0.6,0,1c0,0.4,0,0.8,0,1c0,0.7,0,1.5,0,2.3c0,0.8,0.1,1.7,0.1,2.5c0,0.9,0.1,1.7,0.2,2.5c0.1,0.8,0.2,1.6,0.3,2.3
			c0.1,0.4,0.1,0.7,0,0.8c-0.1,0.1-0.3,0.2-0.7,0.2c-0.6,0-1.2,0.1-1.8,0.1c-0.6,0-1.2,0-1.8,0c-0.3,0-0.5-0.1-0.6-0.2
			c-0.1-0.1-0.2-0.3-0.2-0.6c0-0.1,0-0.3,0-0.4c0-0.1,0-0.3,0-0.4c0-1.1,0-2.2,0.1-3.4c0-1.2,0-2.3,0.1-3.5c0-1.2,0.1-2.4,0.1-3.5
			c0-1.2,0.1-2.3,0.1-3.4c0-1.3,0.1-2.7,0.2-4c0.1-1.3,0.2-2.6,0.3-4c0-0.3,0.1-0.4,0.1-0.5c0.1-0.1,0.2-0.1,0.5-0.1l3.3,0.1
			c0.5,0,0.7,0,0.8,0.1c0.1,0.1,0.2,0.3,0.3,0.8c0.1,0.6,0.3,1.4,0.5,2.3c0.2,0.9,0.5,1.8,0.7,2.7c0.2,0.9,0.5,1.7,0.7,2.3
			c0.2,0.7,0.3,1.1,0.4,1.2c0.1-0.1,0.2-0.3,0.3-0.7c0.2-0.4,0.3-1,0.5-1.6s0.4-1.3,0.6-2c0.2-0.7,0.4-1.4,0.6-2
			c0.2-0.6,0.3-1.2,0.5-1.6c0.1-0.5,0.2-0.7,0.3-0.9c0.1-0.4,0.3-0.6,0.7-0.6c0.7,0,1.3,0,2-0.1c0.7,0,1.3,0,2,0
			c0.4,0,0.6,0,0.7,0.1c0.1,0.1,0.2,0.3,0.2,0.7c0,0.2,0,0.3,0.1,0.4c0,0.1,0,0.3,0.1,0.4c0.1,2.1,0.1,4.3,0.1,6.4
			c0,2.1,0.1,4.3,0.2,6.4c0,0.6,0.1,1.3,0.1,2c0,0.7,0.1,1.5,0.1,2.2c0,0.7,0.1,1.5,0.2,2.2C210.8,86.5,210.9,87.2,211.1,87.8z"/>
		<path class="st16" d="M226.9,65.6c0.1,0.6,0.1,1.2,0.2,1.9c0,0.6,0.1,1.2,0.1,1.9c0,0.1-0.1,0.2-0.2,0.2c-0.7,0-1.5,0-2.2,0
			c-0.7,0-1.5,0-2.2-0.1c-0.3,0-0.6,0-0.9,0c-0.3,0-0.6,0-0.9,0c-0.1,0.4-0.1,0.7-0.2,1c0,0.3-0.1,0.5-0.1,0.8c0,0.3,0,0.6-0.1,0.8
			c0,0.3,0,0.6-0.1,1h4.5c0.2,0,0.4,0.1,0.4,0.4c0,0.2,0.1,0.4,0.1,0.5c0,0.5,0,1-0.1,1.5c0,0.5,0,1-0.1,1.5c0,0.3-0.1,0.5-0.2,0.6
			c-0.1,0.1-0.3,0.1-0.6,0.1c-0.3,0-0.7-0.1-1-0.1c-0.4,0-0.7-0.1-1-0.1c-0.4,0-0.7-0.1-1.1-0.1c-0.4,0-0.7-0.1-1.2-0.1
			c0,1-0.1,2-0.2,2.9s-0.1,1.9-0.2,3c1.1,0.1,2.1,0.1,3.1,0c1-0.1,2-0.2,3.1-0.3c0.2,0,0.3,0,0.3,0.2c0,0.2,0,0.5,0,0.9
			c0,0.4,0,0.8,0,1.2c0,0.4,0,0.9,0,1.3c0,0.4,0,0.8,0,1.1c0,0.5-0.1,0.8-0.1,1c0,0.2-0.2,0.2-0.5,0.2c-0.2,0-0.6,0-1.4,0.1
			c-0.7,0-1.7,0-2.7-0.1c-1.1-0.1-2.2-0.2-3.4-0.4c-1.2-0.2-2.4-0.5-3.6-0.8c-0.1,0-0.2-0.1-0.4-0.2c-0.3-0.1-0.4-0.2-0.5-0.4
			c-0.1-0.1-0.1-0.3-0.1-0.6c0.1-0.7,0.2-1.5,0.3-2.2c0.1-0.7,0.2-1.5,0.2-2.2c0.2-2.1,0.4-4.2,0.6-6.3c0.2-2.1,0.4-4.2,0.6-6.3
			c0-0.5,0.1-1,0.1-1.4c0-0.5,0.1-1,0.1-1.4c0-0.2,0.1-0.4,0.3-0.5c0.1-0.1,0.3-0.2,0.5-0.3c0.7,0,1.5-0.1,2.6-0.2
			c1.1-0.1,2.1-0.2,3.1-0.3c1-0.1,1.9-0.2,2.7-0.2c0.8-0.1,1.2-0.1,1.4-0.2c0.5-0.1,0.8-0.1,0.8,0.1
			C226.8,65.2,226.9,65.4,226.9,65.6z"/>
		<path class="st16" d="M247.8,77c0,0.1,0,0.2,0,0.3c0,0.1,0,0.2,0,0.3c0,0.1,0,0.2,0,0.3c0,0.1,0,0.2,0,0.3c0,0.9-0.1,1.8-0.2,2.6
			c-0.1,0.9-0.3,1.7-0.6,2.5c-0.3,0.8-0.7,1.6-1.1,2.3c-0.5,0.7-1.1,1.3-1.8,1.9c-0.8,0.6-1.6,1-2.5,1.2c-0.9,0.2-1.8,0.2-2.7,0
			c-0.8-0.2-1.6-0.4-2.3-0.6c-0.7-0.3-1.4-0.6-2.1-1.1c-2.6-1.7-4.1-4.1-4.7-7.1c-0.3-1.5-0.4-3-0.3-4.5c0.1-1.5,0.4-2.9,0.9-4.4
			c0.2-0.7,0.6-1.4,0.9-2c0.4-0.6,0.8-1.2,1.3-1.7c0.5-0.5,1.1-0.9,1.7-1.3c0.6-0.3,1.3-0.6,2-0.7c0.7-0.2,1.4-0.3,2.1-0.3
			c2-0.1,3.7,0.6,5,2c1.3,1.4,2.3,3,3.1,4.7C247.2,73.2,247.6,75,247.8,77z M241.7,80.4c0-0.2,0.1-0.5,0.2-0.9
			c0.1-0.4,0.1-1,0.1-1.6c0-0.6-0.1-1.3-0.2-2c-0.2-0.7-0.4-1.4-0.9-2.1c-0.1-0.2-0.2-0.4-0.4-0.6c-0.1-0.2-0.3-0.4-0.4-0.5
			c-0.6-0.6-1.2-0.9-1.9-0.8c-0.7,0-1.3,0.4-1.8,1c-0.5,0.5-0.8,1.1-1,1.9c-0.3,1-0.3,2.1-0.2,3c0.2,1,0.5,1.9,1,2.9
			c0.3,0.5,0.6,0.8,1,1.1c0.4,0.3,0.8,0.5,1.3,0.6c0.5,0.1,0.9,0.1,1.3-0.1c0.4-0.1,0.8-0.4,1.1-0.7
			C241.3,81.2,241.6,80.8,241.7,80.4z"/>
		<path class="st16" d="M265.8,64.9c0.3,0,0.5,0.1,0.6,0.2c0.1,0.1,0.1,0.3,0.1,0.6c0,0.3-0.1,0.7-0.1,1.2c0,0.5-0.1,0.9-0.1,1.4
			c0,0.5-0.1,0.9-0.1,1.4c0,0.5-0.1,0.9-0.1,1.2c-0.2,1.7-0.4,3.5-0.6,5.2c-0.1,1.7-0.2,3.5-0.3,5.2c0,1-0.1,1.9-0.1,2.8
			c0,0.9,0,1.9,0,2.8c0,0.2,0,0.4,0,0.6c0,0.2,0,0.4,0,0.6c0,0.4-0.2,0.6-0.5,0.6c-0.5,0-1,0-1.5,0c-0.5,0-1,0-1.5,0
			c-0.8,0-1.4-0.5-1.7-1.3c-0.2-0.4-0.4-0.9-0.6-1.5c-0.3-0.6-0.6-1.2-0.8-1.9c-0.3-0.7-0.6-1.3-0.9-2c-0.3-0.6-0.6-1.2-0.8-1.7
			c-0.2-0.5-0.5-1.1-0.8-1.7c0,0.5,0,1.2,0.1,2.2c0.1,0.9,0.1,1.9,0.2,2.9c0.1,1,0.1,1.8,0.2,2.6c0.1,0.8,0.1,1.3,0.1,1.5
			c0,0.5,0,0.7-0.1,0.8c-0.1,0.1-0.4,0.1-0.8,0.1l-4,0.1h-0.5c-0.3,0-0.5-0.1-0.6-0.2c-0.1-0.1-0.2-0.3-0.1-0.6c0-0.4,0-0.9,0.1-1.3
			c0-0.4,0.1-0.9,0.1-1.3c0.2-2.2,0.3-4.5,0.4-6.7c0.1-2.2,0.1-4.5,0.1-6.7c0-0.4,0-0.9-0.1-1.4c0-0.5-0.1-1.1-0.1-1.7
			c0-0.6-0.1-1.1-0.1-1.7c0-0.5-0.1-1-0.1-1.5c0-0.3,0-0.6,0.1-0.7c0.1-0.1,0.3-0.2,0.6-0.2c0.5,0,1,0.1,1.5,0.1
			c0.5,0,1,0.1,1.5,0.1c0.2,0,0.3,0.1,0.4,0.2c0.1,0.1,0.1,0.2,0.2,0.4c0.1,0.5,0.3,1.1,0.5,1.8c0.2,0.6,0.4,1.3,0.6,1.9
			s0.5,1.3,0.7,1.9c0.2,0.6,0.5,1.2,0.7,1.7c0.4,0.9,0.8,1.7,1.3,2.5c0.5,0.8,1,1.5,1.6,2.3c0.1,0.1,0.2,0.2,0.3,0.3
			c0.1,0.1,0.2,0.3,0.4,0.4v-0.9c0-0.9,0-1.8,0-2.8c0-1,0-2,0-3c0-1,0-2,0-3c0-1,0-1.9,0-2.8c0-0.5,0.1-0.7,0.2-0.9
			c0.1-0.1,0.4-0.2,0.9-0.2c0.7,0,1.3,0,2,0C264.5,64.9,265.1,64.9,265.8,64.9z"/>
		<path class="st16" d="M282.3,65.6c0.1,0.6,0.1,1.2,0.2,1.9c0,0.6,0.1,1.2,0.1,1.9c0,0.1-0.1,0.2-0.2,0.2c-0.7,0-1.5,0-2.2,0
			c-0.7,0-1.5,0-2.2-0.1c-0.3,0-0.6,0-0.9,0c-0.3,0-0.6,0-0.9,0c-0.1,0.4-0.1,0.7-0.2,1c0,0.3-0.1,0.5-0.1,0.8c0,0.3,0,0.6-0.1,0.8
			c0,0.3,0,0.6-0.1,1h4.5c0.2,0,0.4,0.1,0.4,0.4c0,0.2,0.1,0.4,0.1,0.5c0,0.5,0,1-0.1,1.5c0,0.5,0,1-0.1,1.5c0,0.3-0.1,0.5-0.2,0.6
			c-0.1,0.1-0.3,0.1-0.6,0.1c-0.3,0-0.7-0.1-1-0.1c-0.4,0-0.7-0.1-1-0.1c-0.4,0-0.7-0.1-1.1-0.1c-0.4,0-0.7-0.1-1.2-0.1
			c0,1-0.1,2-0.2,2.9c-0.1,1-0.1,1.9-0.2,3c1.1,0.1,2.1,0.1,3.1,0c1-0.1,2-0.2,3.1-0.3c0.2,0,0.3,0,0.3,0.2c0,0.2,0,0.5,0,0.9
			c0,0.4,0,0.8,0,1.2c0,0.4,0,0.9,0,1.3c0,0.4,0,0.8,0,1.1c0,0.5-0.1,0.8-0.1,1c0,0.2-0.2,0.2-0.5,0.2c-0.2,0-0.6,0-1.4,0.1
			c-0.7,0-1.7,0-2.7-0.1c-1.1-0.1-2.2-0.2-3.4-0.4c-1.2-0.2-2.4-0.5-3.6-0.8c-0.1,0-0.2-0.1-0.4-0.2c-0.3-0.1-0.4-0.2-0.5-0.4
			c-0.1-0.1-0.1-0.3-0.1-0.6c0.1-0.7,0.2-1.5,0.3-2.2c0.1-0.7,0.2-1.5,0.2-2.2c0.2-2.1,0.4-4.2,0.6-6.3c0.2-2.1,0.4-4.2,0.6-6.3
			c0-0.5,0.1-1,0.1-1.4c0-0.5,0.1-1,0.1-1.4c0-0.2,0.1-0.4,0.3-0.5c0.1-0.1,0.3-0.2,0.5-0.3c0.7,0,1.5-0.1,2.6-0.2
			c1.1-0.1,2.1-0.2,3.1-0.3c1-0.1,1.9-0.2,2.7-0.2c0.8-0.1,1.2-0.1,1.4-0.2c0.5-0.1,0.8-0.1,0.8,0.1
			C282.3,65.2,282.3,65.4,282.3,65.6z"/>
		<path class="st16" d="M309.5,81.6c0.1,0.7-0.1,1.5-0.4,2.3c-0.3,0.8-0.8,1.5-1.3,2.2c-0.6,0.7-1.3,1.3-2.1,1.7
			c-0.8,0.5-1.7,0.8-2.6,0.9c-1.7,0.1-3.2,0-4.7-0.5c-0.5-0.2-1-0.4-1.6-0.6c-0.5-0.2-1-0.4-1.6-0.7c-0.3-0.1-0.5-0.2-0.5-0.3
			c-0.1-0.1-0.1-0.3,0-0.6c0.2-0.8,0.5-1.5,0.7-2.3c0.2-0.8,0.5-1.5,0.7-2.3c0.1-0.4,0.4-0.5,0.8-0.3c0.1,0,0.2,0.1,0.3,0.2
			c0.1,0.1,0.2,0.1,0.3,0.2c0.6,0.4,1.1,0.7,1.7,0.9c0.6,0.2,1.2,0.5,1.8,0.6c0.4,0.1,0.9,0.2,1.3,0.1c0.4,0,0.8-0.2,1.2-0.5
			c0.6-0.5,1-1,1-1.8c0.1-0.7-0.1-1.4-0.7-2c-0.2-0.2-0.4-0.5-0.7-0.6c-0.3-0.2-0.5-0.4-0.8-0.5c-0.3-0.2-0.7-0.3-1-0.5
			c-0.4-0.1-0.7-0.3-1.1-0.4c-0.6-0.2-1.2-0.5-1.7-0.8c-0.5-0.3-1.1-0.7-1.5-1.1c-1-0.9-1.6-1.8-2-2.9c-0.3-1.1-0.4-2.3-0.1-3.6
			c0.3-1.5,1.2-2.6,2.8-3.1c0.5-0.2,1-0.3,1.4-0.4c0.5-0.1,1-0.1,1.5-0.1c1,0,2,0.1,3,0.4c1,0.2,1.9,0.7,2.8,1.2
			c0.2,0.1,0.3,0.2,0.4,0.3c0.1,0.1,0.2,0.2,0.2,0.2c0,0.1,0,0.2,0,0.3c0,0.1,0,0.3-0.1,0.5c-0.1,0.5-0.2,1-0.3,1.4
			c-0.1,0.5-0.2,1-0.4,1.4c-0.1,0.4-0.3,0.6-0.4,0.6c-0.2,0.1-0.4,0-0.7-0.3c-0.2-0.1-0.4-0.3-0.6-0.4c-0.2-0.1-0.4-0.3-0.6-0.4
			c-0.6-0.4-1.2-0.5-1.9-0.3c-0.8,0.3-1,0.8-0.7,1.6c0.1,0.3,0.4,0.6,0.7,0.8c0.2,0.2,0.5,0.4,0.8,0.6c0.3,0.2,0.5,0.3,0.8,0.5
			l2.2,1.4c1.2,0.8,2.1,1.8,2.7,2.9C309.1,78.9,309.4,80.2,309.5,81.6z"/>
		<path class="st16" d="M330.5,87.6c0.1,0.3,0.1,0.5,0.1,0.6c-0.1,0.1-0.2,0.2-0.6,0.2c-0.9,0.1-1.7,0.2-2.6,0.3
			c-0.9,0.1-1.7,0-2.6-0.1c-0.3,0-0.5-0.1-0.8-0.1c-0.3,0-0.5-0.1-0.8-0.1c-0.3,0-0.4-0.1-0.5-0.2c-0.1-0.1-0.1-0.3-0.1-0.5
			c0-0.4,0.1-0.9,0.1-1.5c0-0.6,0.1-1.2,0.1-1.8c0-0.6,0.1-1.1,0.1-1.6c0-0.5,0-0.7,0-0.8H319c0,0.1,0,0.4,0.1,0.9
			c0.1,0.5,0.1,1,0.2,1.5c0.1,0.6,0.1,1.1,0.2,1.7c0.1,0.6,0.1,1,0.2,1.4c0,0,0,0.1,0,0.2c0,0.1,0,0.1,0,0.2c0,0.3,0,0.5-0.1,0.6
			c-0.1,0.1-0.3,0.1-0.6,0.1c-0.4,0-0.8,0-1.2,0c-0.4,0-0.8,0-1.2-0.1c-0.7,0-1.4,0-2-0.1c-0.7,0-1.4,0-2-0.1
			c-0.5,0-0.8-0.1-0.8-0.2c-0.1-0.1-0.1-0.4,0.1-0.8c0.2-0.6,0.4-1.5,0.7-2.6c0.3-1.1,0.6-2.3,0.9-3.6c0.3-1.3,0.7-2.7,1-4.1
			c0.4-1.4,0.7-2.7,1-4c0.3-1.2,0.6-2.4,0.8-3.3c0.2-1,0.4-1.7,0.5-2.1c0.1-0.4,0.3-0.7,0.5-0.9c0.2-0.2,0.5-0.4,0.9-0.4
			c0.7-0.2,1.4-0.3,2.1-0.5c0.7-0.2,1.4-0.3,2.1-0.5c0.2,0,0.4-0.1,0.6-0.1c0.2,0,0.4-0.1,0.6-0.1c0.4-0.1,0.6,0,0.8,0.4
			c0,0,0.1,0.5,0.3,1.2c0.2,0.8,0.5,1.8,0.8,3c0.3,1.2,0.7,2.6,1.2,4.2c0.4,1.6,0.9,3.2,1.3,4.8c0.4,1.6,0.9,3.2,1.3,4.7
			c0.4,1.5,0.8,2.9,1.1,4.1C330.5,87.4,330.5,87.5,330.5,87.6z M319.5,77.8c0.5,0,0.9,0,1.4-0.1c0.5,0,0.9,0,1.4-0.1
			c-0.2-1-0.4-1.9-0.6-2.8c-0.2-0.9-0.5-1.8-1-2.7c-0.3,1-0.6,1.9-0.8,2.8C319.7,75.9,319.5,76.8,319.5,77.8z"/>
		<path class="st16" d="M347.9,67.9c0,0.1-0.1,0.3-0.4,0.7c-0.2,0.4-0.5,0.9-0.9,1.4c-0.3,0.6-0.7,1.2-1.2,1.9
			c-0.4,0.7-0.9,1.4-1.3,2.1c-0.5,0.7-0.9,1.3-1.3,1.9s-0.8,1.1-1.2,1.5c-0.3,0.5-0.5,0.9-0.5,1.4c0,0.5,0.1,1,0.2,1.6
			c0.1,0.6,0.2,1.3,0.3,1.9c0.1,0.7,0.2,1.3,0.3,2c0.1,0.7,0.2,1.2,0.3,1.8c0.1,0.5,0.2,0.9,0.2,1.3c0.1,0.3,0.1,0.5,0.1,0.5
			c0,0.3,0,0.5-0.1,0.6c-0.1,0.1-0.3,0.2-0.6,0.2c-0.8,0-1.5,0-2.3,0c-0.7,0-1.5,0-2.2,0c-0.4,0-0.6-0.2-0.5-0.6
			c0-0.2,0.1-0.7,0.1-1.4c0.1-0.8,0.1-1.7,0.2-2.7c0.1-1,0.2-2,0.2-3c0.1-1,0.2-1.8,0.2-2.3c0-0.2,0-0.5-0.1-0.6
			c-0.1-0.2-0.2-0.3-0.4-0.5c-0.3-0.3-0.7-0.6-1.1-1c-0.4-0.4-0.9-0.8-1.4-1.3c-0.5-0.5-1-0.9-1.5-1.4c-0.5-0.5-1-0.9-1.4-1.3
			c-0.4-0.4-0.8-0.7-1.1-1c-0.3-0.3-0.5-0.5-0.6-0.6c-0.2-0.2-0.3-0.4-0.3-0.6c0-0.1,0.1-0.3,0.3-0.6c0.5-0.6,1-1.3,1.4-1.9
			c0.5-0.6,1-1.3,1.4-1.9c0.2-0.3,0.4-0.4,0.6-0.4c0.1,0,0.3,0.2,0.6,0.5c0.1,0.1,0.3,0.4,0.6,0.8c0.3,0.4,0.6,0.8,1,1.3
			c0.4,0.5,0.8,1,1.2,1.5c0.4,0.5,0.8,1,1.2,1.5c0.4,0.4,0.7,0.8,0.9,1.1c0.2,0.3,0.4,0.5,0.4,0.5c0-0.1,0.1-0.3,0.3-0.7
			c0.2-0.4,0.3-0.8,0.5-1.4c0.2-0.5,0.4-1.1,0.7-1.7c0.2-0.6,0.5-1.2,0.7-1.7c0.2-0.5,0.4-1,0.5-1.3c0.1-0.4,0.2-0.6,0.2-0.6
			c0.1-0.3,0.2-0.4,0.4-0.5c0.1-0.1,0.4-0.1,0.6,0.1c0.1,0,0.3,0.1,0.7,0.3c0.4,0.1,0.8,0.3,1.2,0.5c0.4,0.2,0.9,0.4,1.3,0.5
			c0.4,0.2,0.8,0.3,1,0.4c0.4,0.1,0.6,0.3,0.6,0.4C348,67.2,348,67.5,347.9,67.9z"/>
	</g>
</g>
</svg>
